<?xml version="1.0" standalone="no"?>
<!DOCTYPE svg PUBLIC "-//W3C//DTD SVG 20010904//EN"
 "http://www.w3.org/TR/2001/REC-SVG-20010904/DTD/svg10.dtd">
<svg version="1.0" xmlns="http://www.w3.org/2000/svg"
 width="350.000000pt" height="350.000000pt" viewBox="0 0 350.000000 350.000000"
 preserveAspectRatio="xMidYMid meet">
<metadata>
Created by potrace 1.16, written by Peter Selinger 2001-2019
</metadata>
<g transform="translate(0.000000,350.000000) scale(0.100000,-0.100000)"
fill="#000000" stroke="none">
<path d="M2930 3405 c-124 -17 -175 -29 -273 -67 -190 -73 -353 -190 -452
-323 -17 -22 -35 -46 -42 -53 -16 -17 -98 -188 -111 -232 -6 -19 -17 -57 -26
-85 -9 -27 -21 -101 -28 -162 -12 -109 -13 -113 -36 -113 -20 0 -23 -4 -20
-27 2 -16 9 -29 16 -29 6 -1 17 -2 22 -3 6 0 10 -25 10 -53 0 -159 96 -427
211 -590 20 -28 24 -48 11 -64 -8 -8 -22 -50 -43 -129 -39 -147 -52 -368 -34
-575 20 -217 50 -403 78 -480 3 -8 8 -27 11 -42 l6 -28 -155 0 c-121 0 -155 3
-155 13 0 14 -41 34 -120 60 -45 15 -117 41 -155 57 -11 5 -28 11 -38 14 -10
3 -281 6 -602 6 l-585 1 0 25 c0 13 6 27 13 29 6 3 186 8 398 13 212 5 393 13
401 18 9 5 44 40 79 77 l62 69 -11 56 c-6 31 -34 167 -62 302 -28 135 -55 268
-61 295 -5 28 -14 68 -19 90 -4 22 -13 63 -18 90 -5 28 -24 120 -42 205 -18
85 -36 173 -40 195 -5 22 -13 67 -20 100 -21 106 -30 149 -39 190 -21 93 -63
293 -68 327 -3 21 -12 43 -21 50 -12 10 -126 14 -494 16 l-478 3 0 -26 0 -25
450 0 c248 0 450 -3 450 -8 0 -4 -17 -26 -39 -50 l-39 -42 -411 0 c-404 0
-411 0 -411 -20 0 -20 7 -20 390 -20 258 0 390 -3 390 -10 0 -6 -18 -40 -40
-76 -22 -36 -40 -68 -40 -71 0 -2 -13 -24 -30 -48 -16 -24 -30 -47 -30 -52 0
-4 -10 -20 -23 -35 l-22 -27 -297 -7 c-282 -6 -298 -8 -298 -25 0 -18 14 -19
298 -19 l298 0 11 -42 c7 -24 17 -68 24 -98 6 -30 15 -65 20 -78 5 -13 9 -34
9 -47 0 -13 4 -34 9 -47 5 -13 15 -50 21 -83 7 -33 16 -71 20 -85 4 -14 13
-50 19 -80 18 -81 31 -141 41 -180 10 -37 69 -287 102 -430 10 -47 26 -114 34
-149 12 -48 13 -66 4 -71 -15 -9 -459 -24 -467 -16 -5 5 1 56 39 301 46 305
46 306 3 470 -21 77 -43 166 -51 198 -25 105 -7 97 -234 97 -193 0 -200 -1
-200 -20 0 -19 7 -20 154 -20 84 0 168 -3 185 -6 29 -6 32 -10 26 -33 -4 -14
-11 -64 -16 -111 -11 -96 -21 -183 -60 -497 -6 -49 -15 -124 -19 -168 -5 -44
-14 -116 -19 -160 -5 -44 -15 -123 -21 -175 -6 -52 -14 -111 -18 -130 l-8 -35
-102 -3 c-93 -2 -102 -4 -102 -22 0 -18 9 -20 106 -22 114 -3 108 0 134 -63 7
-16 16 -38 21 -47 5 -10 9 -26 9 -36 0 -10 5 -23 11 -29 7 -7 9 -19 6 -27 -5
-14 -29 -16 -147 -16 -134 0 -140 -1 -140 -20 0 -20 6 -20 153 -19 167 1 187
4 392 59 44 12 90 24 103 27 30 7 40 33 19 45 -10 5 -17 13 -17 18 0 6 243 11
628 12 l627 3 10 22 c10 23 13 23 176 23 165 0 167 0 183 -24 24 -38 47 -39
111 -6 l57 30 529 0 529 0 0 25 0 25 -482 0 -482 0 58 35 c148 89 393 307 557
495 41 46 82 93 92 105 10 11 35 41 55 68 20 26 39 47 42 47 13 0 80 -183 139
-380 l19 -65 1 106 c1 115 -4 137 -70 302 -22 54 -37 103 -33 110 4 7 29 37
56 68 41 47 48 62 48 97 0 23 -5 42 -10 42 -6 0 -37 -11 -70 -24 -99 -41 -116
-42 -136 -9 -157 261 -336 428 -518 485 -56 17 -170 38 -212 38 -86 0 -179
-46 -246 -120 -40 -45 -51 -52 -59 -40 -32 49 -90 152 -109 195 -12 28 -26 58
-31 67 -5 10 -9 28 -9 41 0 23 2 23 98 23 84 -1 104 2 147 24 69 35 87 71 81
171 -4 69 -2 77 20 98 25 25 32 61 12 61 -7 0 -23 -11 -35 -24 -13 -13 -35
-26 -50 -29 -43 -8 -297 5 -311 16 -30 23 10 262 70 412 61 156 183 307 324
402 68 46 208 114 274 133 25 7 56 16 70 20 101 32 412 38 560 12 151 -28 140
-28 140 6 0 33 2 32 -110 51 -196 33 -307 36 -460 16z m-1966 -932 c10 -49 22
-106 26 -128 4 -22 13 -65 20 -95 12 -54 17 -77 40 -195 7 -33 16 -78 20 -100
10 -42 22 -102 40 -195 6 -30 15 -73 20 -95 4 -22 13 -65 19 -95 6 -30 20 -98
31 -150 11 -52 29 -138 40 -190 10 -52 35 -171 55 -265 19 -93 38 -181 41
-195 4 -20 -4 -34 -36 -67 -23 -24 -45 -43 -49 -43 -5 0 -11 19 -14 43 -4 23
-11 65 -17 92 -6 28 -15 73 -21 100 -5 28 -13 70 -19 95 -6 25 -14 65 -19 90
-8 44 -96 471 -111 540 -4 19 -23 114 -43 210 -19 96 -38 189 -42 205 -25 115
-43 205 -54 265 -5 25 -14 73 -21 107 l-12 62 38 45 c21 25 41 46 44 46 4 0
15 -39 24 -87z m-115 -183 c11 -58 37 -181 56 -275 20 -93 40 -192 45 -220 5
-27 19 -93 30 -145 11 -52 25 -120 31 -150 16 -80 25 -125 43 -220 9 -47 21
-101 26 -120 5 -19 14 -62 20 -95 6 -33 15 -78 20 -100 4 -22 13 -62 18 -90 6
-27 15 -77 22 -110 7 -33 16 -73 21 -89 5 -16 7 -31 5 -34 -6 -5 -208 46 -217
55 -4 5 -12 31 -18 58 -13 64 -35 162 -60 265 -5 19 -14 60 -21 90 -7 30 -16
71 -21 90 -15 64 -27 114 -39 170 -26 119 -35 157 -106 455 -19 83 -42 182
-50 220 l-15 70 88 147 c48 81 91 144 94 140 4 -4 17 -54 28 -112z m1529 -7
c6 -9 12 -41 12 -71 0 -109 -70 -150 -227 -136 -61 6 -76 11 -85 28 -14 26
-29 189 -18 196 4 3 75 4 156 2 125 -2 151 -5 162 -19z m140 -476 c-7 -7 -21
-16 -30 -20 -10 -3 -18 -11 -18 -17 0 -14 4 -13 43 10 19 12 57 23 83 26 41 5
59 1 109 -22 33 -16 64 -31 69 -33 5 -2 6 4 3 13 -8 21 -5 20 46 -5 99 -51
224 -158 308 -266 37 -46 119 -173 119 -182 0 -6 -10 -13 -22 -15 -13 -2 -47
-9 -76 -15 -113 -23 -283 -12 -407 27 -120 37 -306 167 -397 276 l-58 69 20
27 c54 76 142 135 208 139 11 1 11 -1 0 -12z m-2048 -597 c-6 -47 -16 -114
-21 -150 -13 -85 -27 -184 -34 -240 -3 -25 -10 -67 -15 -95 -10 -59 -27 -170
-35 -238 -6 -43 -10 -49 -42 -62 -55 -23 -76 -20 -69 9 3 14 11 66 16 118 13
119 27 231 40 336 18 147 29 234 54 452 14 118 29 226 32 240 5 18 17 -16 46
-130 39 -152 39 -156 28 -240z m1887 279 c43 -41 103 -94 133 -116 67 -50 204
-116 285 -139 89 -25 289 -30 403 -10 115 20 112 20 112 -4 0 -11 5 -20 10
-20 22 0 8 -38 -31 -85 -22 -28 -57 -70 -77 -95 -88 -107 -319 -345 -388 -400
-10 -8 -50 -40 -89 -71 -83 -66 -220 -159 -235 -159 -5 0 -10 -3 -10 -8 0 -17
-62 -33 -116 -30 l-58 3 -19 70 c-72 264 -102 594 -78 838 7 67 16 136 21 152
5 17 13 48 19 70 6 22 13 50 16 63 4 13 11 22 15 20 5 -2 44 -37 87 -79z
m-1353 -852 c22 -12 2 -15 -171 -20 -280 -10 -403 -9 -403 3 0 6 6 11 13 11
202 20 527 23 561 6z m544 -264 l-3 -78 -481 -3 -481 -2 -92 72 c-50 39 -91
75 -91 80 0 4 259 8 575 8 l576 0 -3 -77z m158 31 c55 -20 108 -38 119 -41 32
-9 45 -24 45 -49 l0 -24 -140 0 -140 0 0 68 c0 58 5 82 16 82 1 0 46 -16 100
-36z m-1211 -100 c58 -47 105 -88 105 -92 0 -7 -210 -64 -243 -66 -14 -1 -25
15 -44 64 -14 36 -29 74 -33 85 -12 27 -22 65 -18 65 2 0 21 7 43 15 68 24 79
20 190 -71z"/>
<path d="M3265 2409 c-221 -64 -464 -105 -517 -86 -20 6 -28 16 -28 33 0 17
-6 24 -20 24 -33 0 -27 -53 10 -83 20 -17 30 -35 30 -54 1 -75 63 -166 137
-198 21 -9 49 -22 62 -28 13 -7 74 -12 140 -12 96 1 127 4 181 24 72 26 140
83 168 141 22 46 23 191 2 238 -18 40 -30 40 -165 1z m143 -69 c14 -57 9 -95
-23 -165 -34 -76 -132 -124 -269 -132 -78 -5 -105 -2 -165 16 -107 33 -171
100 -171 181 0 30 15 40 58 40 26 0 118 15 182 30 19 5 60 13 90 20 85 17 206
48 235 61 37 15 48 5 63 -51z"/>
</g>
</svg>
